<svg width="1600" height="900" viewBox="0 0 1600 900" fill="none" xmlns="http://www.w3.org/2000/svg">
  <rect width="1600" height="900" fill="#E8F1FB"/>
  <rect width="1600" height="900" fill="url(#paint0_linear)"/>
  <circle cx="1320" cy="180" r="220" fill="#93C5FD" fill-opacity="0.32"/>
  <circle cx="240" cy="760" r="260" fill="#60A5FA" fill-opacity="0.20"/>
  <circle cx="860" cy="420" r="340" fill="#FFFFFF" fill-opacity="0.65"/>
  <rect x="286" y="200" width="1028" height="500" rx="40" fill="#FFFFFF" fill-opacity="0.9"/>
  <rect x="348" y="264" width="380" height="28" rx="14" fill="#BFDBFE"/>
  <rect x="348" y="320" width="520" height="64" rx="20" fill="#1D4ED8" fill-opacity="0.12"/>
  <rect x="348" y="408" width="458" height="20" rx="10" fill="#CBD5E1"/>
  <rect x="348" y="444" width="412" height="20" rx="10" fill="#CBD5E1"/>
  <rect x="348" y="534" width="190" height="58" rx="29" fill="#2563EB"/>
  <rect x="566" y="534" width="174" height="58" rx="29" fill="#EFF6FF" stroke="#93C5FD" stroke-width="4"/>
  <rect x="930" y="286" width="280" height="328" rx="32" fill="#EFF6FF"/>
  <rect x="1008" y="356" width="124" height="124" rx="28" fill="#DBEAFE"/>
  <path d="M1070 388C1070 381.373 1075.37 376 1082 376H1058C1064.63 376 1070 381.373 1070 388V412H1094C1100.63 412 1106 417.373 1106 424C1106 430.627 1100.63 436 1094 436H1070V460C1070 466.627 1064.63 472 1058 472C1051.37 472 1046 466.627 1046 460V436H1022C1015.37 436 1010 430.627 1010 424C1010 417.373 1015.37 412 1022 412H1046V388C1046 381.373 1051.37 376 1058 376C1064.63 376 1070 381.373 1070 388Z" fill="#2563EB"/>
  <rect x="970" y="532" width="200" height="18" rx="9" fill="#BFDBFE"/>
  <rect x="970" y="566" width="160" height="18" rx="9" fill="#CBD5E1"/>
  <defs>
    <linearGradient id="paint0_linear" x1="152" y1="58" x2="1436" y2="852" gradientUnits="userSpaceOnUse">
      <stop stop-color="#F8FBFF"/>
      <stop offset="1" stop-color="#C7DDF7"/>
    </linearGradient>
  </defs>
</svg>
